<svg width="20" height="20" viewBox="0 0 20 20" fill="none" xmlns="http://www.w3.org/2000/svg">
<path d="M4.5606 7.71608C4.5606 7.10479 4.66745 6.52729 4.87803 5.98829C5.07921 5.46477 5.37812 4.98428 5.75881 4.57243C6.13873 4.16599 6.57349 3.81453 7.05053 3.52822C7.53996 3.23212 8.06983 3.00874 8.62353 2.86508C9.18391 2.71793 9.76093 2.64372 10.3403 2.64429C11.2352 2.64429 12.0681 2.83365 12.8405 3.21079C13.6027 3.58106 14.2516 4.14928 14.7191 4.85608C15.2015 5.57501 15.4412 6.38822 15.4412 7.29493C15.4412 7.83865 15.3877 8.37058 15.2785 8.89072C15.1713 9.41057 15.0008 9.91535 14.771 10.3938C14.5518 10.8569 14.2654 11.2851 13.9208 11.6643C13.5745 12.0375 13.1552 12.3354 12.6888 12.5396C12.1825 12.7615 11.6348 12.8732 11.082 12.8672C10.6978 12.8672 10.3144 12.7769 9.93567 12.5954C9.55695 12.4146 9.2851 12.1664 9.12167 11.8481C9.06431 12.0689 8.98574 12.3879 8.88124 12.8051C8.78067 13.2216 8.7131 13.4903 8.68324 13.6121C8.65181 13.7331 8.59367 13.935 8.50881 14.2147C8.45126 14.4216 8.37744 14.6237 8.28803 14.8189L8.01774 15.3485C7.90085 15.5758 7.77018 15.7956 7.62645 16.0069C7.48424 16.2128 7.30824 16.4587 7.09845 16.7416L6.98138 16.7832L6.9036 16.6984C6.81953 15.8082 6.77631 15.2754 6.77631 15.0994C6.77631 14.5785 6.83838 13.9939 6.96095 13.3449C7.08117 12.6967 7.27131 11.8819 7.52667 10.9021C7.78203 9.92315 7.92817 9.34722 7.96745 9.17672C7.78753 8.80979 7.69638 8.33051 7.69638 7.74122C7.69638 7.27058 7.84331 6.82979 8.13795 6.41493C8.43338 6.00165 8.8066 5.79501 9.25917 5.79501C9.60567 5.79501 9.87438 5.90972 10.0669 6.13993C10.2602 6.36936 10.3545 6.65851 10.3545 7.01129C10.3545 7.38529 10.2303 7.92665 9.98045 8.63458C9.7306 9.34329 9.60645 9.87208 9.60645 10.2233C9.60645 10.5792 9.73374 10.877 9.98831 11.1104C10.2395 11.3438 10.5718 11.4704 10.9147 11.4631C11.2258 11.4631 11.5142 11.3924 11.7821 11.2502C12.0458 11.1122 12.2741 10.9151 12.4492 10.6743C12.8304 10.1512 13.1022 9.55663 13.2482 8.92608C13.3237 8.59451 13.3818 8.27943 13.418 7.98322C13.4565 7.68543 13.473 7.40415 13.473 7.13701C13.473 6.15722 13.1618 5.3935 12.5435 4.84665C11.922 4.29979 11.1127 4.02793 10.1172 4.02793C8.98495 4.02793 8.03817 4.39408 7.27995 5.12872C6.52095 5.86101 6.1391 6.79208 6.1391 7.92115C6.1391 8.17022 6.17681 8.41065 6.24831 8.64322C6.31824 8.87501 6.39445 9.05965 6.47695 9.19636C6.55867 9.33072 6.63567 9.46193 6.7056 9.58293C6.77631 9.70393 6.81324 9.79036 6.81324 9.84222C6.81324 10.0009 6.7716 10.2076 6.68753 10.4629C6.60031 10.7183 6.49738 10.8456 6.37324 10.8456C6.36145 10.8456 6.31274 10.8369 6.22788 10.8189C5.934 10.7311 5.66859 10.5671 5.45867 10.3435C5.23587 10.1118 5.06004 9.83908 4.94088 9.54051C4.82207 9.243 4.72952 8.93566 4.66431 8.62201C4.59386 8.32522 4.55904 8.0211 4.5606 7.71608Z" fill="white"/>
</svg>
