<svg width="20" height="20" viewBox="0 0 20 20" fill="none" xmlns="http://www.w3.org/2000/svg">
<path fill-rule="evenodd" clip-rule="evenodd" d="M6.43682 1.19468C7.35846 1.15225 7.65232 1.14282 10 1.14282C12.3477 1.14282 12.6416 1.15304 13.5625 1.19468C14.4833 1.23632 15.1119 1.38325 15.6619 1.59618C16.2378 1.81382 16.7603 2.15404 17.1925 2.59404C17.6325 3.02539 17.9719 3.54711 18.1887 4.12382C18.4025 4.67382 18.5486 5.30239 18.591 6.22168C18.6335 7.14489 18.6429 7.43875 18.6429 9.78568C18.6429 12.1334 18.6327 12.4272 18.591 13.3489C18.5494 14.2682 18.4025 14.8967 18.1887 15.4467C17.9719 16.0235 17.6319 16.5461 17.1925 16.9781C16.7603 17.4181 16.2378 17.7575 15.6619 17.9744C15.1119 18.1881 14.4833 18.3342 13.564 18.3767C12.6416 18.4191 12.3477 18.4285 10 18.4285C7.65232 18.4285 7.35846 18.4183 6.43682 18.3767C5.51753 18.335 4.88896 18.1881 4.33896 17.9744C3.76219 17.7575 3.23961 17.4175 2.80761 16.9781C2.3679 16.5465 2.02764 16.0242 1.81053 15.4475C1.59761 14.8975 1.45146 14.269 1.40903 13.3497C1.36661 12.4265 1.35718 12.1326 1.35718 9.78568C1.35718 7.43796 1.36739 7.14411 1.40903 6.22325C1.45068 5.30239 1.59761 4.67382 1.81053 4.12382C2.02796 3.54717 2.36849 3.02485 2.80839 2.59325C3.23978 2.15364 3.76183 1.81338 4.33818 1.59618C4.88818 1.38325 5.51675 1.23711 6.43603 1.19468H6.43682ZM13.4925 2.75039C12.5811 2.70875 12.3077 2.70011 10 2.70011C7.69239 2.70011 7.41896 2.70875 6.50753 2.75039C5.66446 2.78889 5.20718 2.92954 4.90232 3.04818C4.49925 3.20532 4.21089 3.39154 3.90839 3.69404C3.62164 3.97301 3.40096 4.31262 3.26253 4.68796C3.14389 4.99282 3.00325 5.45011 2.96475 6.29318C2.92311 7.20461 2.91446 7.47804 2.91446 9.78568C2.91446 12.0933 2.92311 12.3667 2.96475 13.2782C3.00325 14.1212 3.14389 14.5785 3.26253 14.8834C3.40082 15.2582 3.62161 15.5984 3.90839 15.8773C4.18732 16.1641 4.52753 16.3849 4.90232 16.5232C5.20718 16.6418 5.66446 16.7825 6.50753 16.821C7.41896 16.8626 7.69161 16.8712 10 16.8712C12.3085 16.8712 12.5811 16.8626 13.4925 16.821C14.3356 16.7825 14.7929 16.6418 15.0977 16.5232C15.5008 16.366 15.7892 16.1798 16.0917 15.8773C16.3785 15.5984 16.5992 15.2582 16.7375 14.8834C16.8562 14.5785 16.9968 14.1212 17.0353 13.2782C17.077 12.3667 17.0856 12.0933 17.0856 9.78568C17.0856 7.47804 17.077 7.20461 17.0353 6.29318C16.9968 5.45011 16.8562 4.99282 16.7375 4.68796C16.5804 4.28489 16.3942 3.99654 16.0917 3.69404C15.8127 3.40731 15.4731 3.18663 15.0977 3.04818C14.7929 2.92954 14.3356 2.78889 13.4925 2.75039ZM8.89611 12.45C9.51262 12.7067 10.1991 12.7413 10.8383 12.548C11.4776 12.3547 12.0298 11.9455 12.4009 11.3903C12.7719 10.8351 12.9386 10.1682 12.8726 9.50369C12.8066 8.83916 12.512 8.21816 12.039 7.74675C11.7374 7.44541 11.3728 7.21467 10.9714 7.07115C10.57 6.92763 10.1418 6.87489 9.71757 6.91673C9.29333 6.95858 8.88365 7.09396 8.51802 7.31314C8.15239 7.53232 7.8399 7.82983 7.60306 8.18428C7.36621 8.53872 7.2109 8.94126 7.1483 9.36293C7.0857 9.7846 7.11737 10.2149 7.24103 10.6229C7.36469 11.0308 7.57727 11.4063 7.86346 11.7222C8.14965 12.0382 8.50233 12.2868 8.89611 12.45ZM6.85875 6.64439C7.27127 6.23187 7.761 5.90465 8.29998 5.68139C8.83897 5.45814 9.41664 5.34323 10 5.34323C10.5834 5.34323 11.1611 5.45814 11.7001 5.68139C12.2391 5.90464 12.7288 6.23187 13.1413 6.64439C13.5538 7.05691 13.8811 7.54664 14.1043 8.08563C14.3276 8.62461 14.4425 9.20229 14.4425 9.78568C14.4425 10.3691 14.3276 10.9467 14.1043 11.4857C13.8811 12.0247 13.5538 12.5144 13.1413 12.927C12.3082 13.7601 11.1782 14.2281 10 14.2281C8.82182 14.2281 7.69187 13.7601 6.85875 12.927C6.02563 12.0938 5.55759 10.9639 5.55759 9.78568C5.55759 8.60747 6.02563 7.47751 6.85875 6.64439ZM15.4277 6.00482C15.53 5.90839 15.6118 5.79243 15.6684 5.6638C15.725 5.53517 15.7552 5.3965 15.7573 5.25598C15.7593 5.11546 15.7332 4.97597 15.6803 4.84574C15.6275 4.71552 15.5491 4.59722 15.4497 4.49785C15.3503 4.39848 15.232 4.32006 15.1018 4.26723C14.9716 4.2144 14.8321 4.18823 14.6916 4.19028C14.5511 4.19233 14.4124 4.22255 14.2838 4.27915C14.1551 4.33576 14.0392 4.4176 13.9427 4.51982C13.7552 4.71863 13.6525 4.9827 13.6565 5.25598C13.6605 5.52926 13.7708 5.79023 13.9641 5.98348C14.1573 6.17674 14.4183 6.28707 14.6916 6.29106C14.9649 6.29504 15.2289 6.19236 15.4277 6.00482Z" fill="white"/>
</svg>
