<svg width="20" height="19" viewBox="0 0 20 19" fill="none" xmlns="http://www.w3.org/2000/svg">
<g clip-path="url(#clip0)">
<path d="M19.0358 5.25542C18.929 4.87453 18.7211 4.52969 18.434 4.25756C18.1388 3.97707 17.7769 3.77642 17.3827 3.67456C15.9071 3.28563 9.99539 3.28563 9.99539 3.28563C7.53086 3.25759 5.06694 3.38092 2.61753 3.65492C2.22325 3.7643 1.86212 3.96943 1.56624 4.25206C1.27553 4.53178 1.06496 4.87671 0.954958 5.25463C0.690717 6.67815 0.562331 8.12355 0.57153 9.57135C0.562101 11.0178 0.690173 12.4628 0.954958 13.8881C1.0626 14.2644 1.27239 14.6078 1.56389 14.8851C1.85539 15.1625 2.21839 15.3628 2.61753 15.4689C4.11274 15.8571 9.99539 15.8571 9.99539 15.8571C12.463 15.8851 14.9301 15.7618 17.3827 15.4878C17.7769 15.3859 18.1388 15.1853 18.434 14.9048C18.7247 14.6274 18.9313 14.2825 19.035 13.9069C19.3062 12.484 19.438 11.038 19.4287 9.58942C19.4491 8.13475 19.3174 6.68193 19.0358 5.25463V5.25542ZM8.11596 12.2616V6.88185L13.0345 9.57213L8.11596 12.2616Z" fill="white"/>
</g>
<defs>
<clipPath id="clip0">
<rect width="18.8571" height="18.8571" fill="white" transform="translate(0.571411 0.142822)"/>
</clipPath>
</defs>
</svg>
