<svg width="20" height="20" viewBox="0 0 20 20" fill="none" xmlns="http://www.w3.org/2000/svg">
<g clip-path="url(#clip0)">
<path d="M19.148 4.09314C18.492 4.38385 17.7872 4.58028 17.0463 4.66907C17.8108 4.21162 18.3827 3.49165 18.6554 2.6435C17.9371 3.07013 17.151 3.37043 16.3313 3.53135C15.78 2.94275 15.0498 2.55261 14.2541 2.42151C13.4584 2.29041 12.6416 2.42569 11.9307 2.80634C11.2197 3.18699 10.6543 3.79171 10.3222 4.52662C9.99018 5.26153 9.91004 6.08551 10.0943 6.87064C8.63887 6.79756 7.21511 6.41928 5.91538 5.76035C4.61565 5.10141 3.46899 4.17655 2.54983 3.04578C2.23555 3.58792 2.05483 4.2165 2.05483 4.88592C2.05448 5.48856 2.20289 6.08197 2.48688 6.6135C2.77087 7.14503 3.18167 7.59824 3.68283 7.93292C3.10162 7.91443 2.53323 7.75738 2.02497 7.47485V7.52199C2.02492 8.36722 2.31729 9.18644 2.85248 9.84063C3.38766 10.4948 4.13271 10.9437 4.96119 11.1111C4.42202 11.2571 3.85674 11.2786 3.30805 11.174C3.54179 11.9013 3.99711 12.5372 4.61026 12.9929C5.22341 13.4485 5.9637 13.701 6.72747 13.715C5.43091 14.7328 3.82967 15.2849 2.18133 15.2825C1.88935 15.2826 1.59761 15.2655 1.30762 15.2314C2.98078 16.3072 4.92846 16.8781 6.91762 16.8759C13.6512 16.8759 17.3323 11.2989 17.3323 6.46207C17.3323 6.30492 17.3283 6.14621 17.3213 5.98907C18.0373 5.47126 18.6553 4.83006 19.1465 4.0955L19.148 4.09314Z" fill="white"/>
</g>
<defs>
<clipPath id="clip0">
<rect width="18.8571" height="18.8571" fill="white" transform="translate(0.571411 0.214111)"/>
</clipPath>
</defs>
</svg>
