<svg width="163" height="26" viewBox="0 0 163 26" fill="none" xmlns="http://www.w3.org/2000/svg">
<path d="M0.988 0.799998H6.82V21.248H19.456V26H0.988V0.799998ZM45.1066 21.32V26H25.5946V0.799998H44.6386V5.48H31.3906V10.952H43.0906V15.488H31.3906V21.32H45.1066ZM52.6269 0.799998H64.0749C66.8109 0.799998 69.2229 1.328 71.3109 2.384C73.4229 3.416 75.0549 4.88 76.2069 6.776C77.3829 8.672 77.9709 10.88 77.9709 13.4C77.9709 15.92 77.3829 18.128 76.2069 20.024C75.0549 21.92 73.4229 23.396 71.3109 24.452C69.2229 25.484 66.8109 26 64.0749 26H52.6269V0.799998ZM63.7869 21.212C66.3069 21.212 68.3109 20.516 69.7989 19.124C71.3109 17.708 72.0669 15.8 72.0669 13.4C72.0669 11 71.3109 9.104 69.7989 7.712C68.3109 6.296 66.3069 5.588 63.7869 5.588H58.4589V21.212H63.7869ZM122.493 0.799998L114.249 26H107.985L102.441 8.936L96.7173 26H90.4893L82.2093 0.799998H88.2573L93.9453 18.512L99.8853 0.799998H105.285L111.045 18.656L116.913 0.799998H122.493ZM128.629 0.799998H134.461V26H128.629V0.799998ZM148.542 5.552H140.478V0.799998H162.438V5.552H154.374V26H148.542V5.552Z" fill="#3382FA"/>
</svg>
