<svg width="19" height="20" viewBox="0 0 19 20" fill="none" xmlns="http://www.w3.org/2000/svg">
<g clip-path="url(#clip0)">
<path d="M9.49957 2.92798C7.92567 2.92798 6.64966 4.271 6.64966 5.92788C6.64966 7.58461 7.92567 8.92763 9.49957 8.92763C11.0735 8.92763 12.3495 7.58461 12.3495 5.92788C12.3477 4.27176 11.0727 2.92981 9.49957 2.92798ZM9.49957 8.261C8.27544 8.261 7.28295 7.21643 7.28295 5.92788C7.28295 4.63918 8.27544 3.59461 9.49957 3.59461C10.7237 3.59461 11.7162 4.63918 11.7162 5.92788C11.7147 7.21582 10.7231 8.25963 9.49957 8.261Z" fill="white"/>
<path d="M9.49957 4.26123C8.62522 4.26123 7.91626 5.00735 7.91626 5.92788C7.91626 6.84825 8.62522 7.59437 9.49957 7.59437C10.3739 7.59437 11.0829 6.84825 11.0829 5.92788C11.0819 5.00781 10.3735 4.2623 9.49957 4.26123ZM9.49957 6.92774C8.97499 6.92774 8.54956 6.48007 8.54956 5.92788C8.54956 5.37553 8.97499 4.92786 9.49957 4.92786C10.0242 4.92786 10.4496 5.37553 10.4496 5.92788C10.449 6.47992 10.024 6.92713 9.49957 6.92774Z" fill="white"/>
<path d="M14.2493 7.59437C14.599 7.59406 14.8822 7.29577 14.8826 6.92774V4.92786C14.8822 4.55983 14.599 4.26169 14.2493 4.26123H13.299C13.1641 3.91639 12.9862 3.59201 12.7702 3.2963L13.2434 2.43269C13.3286 2.27981 13.3524 2.09732 13.3093 1.92582C13.2663 1.75447 13.16 1.60814 13.0142 1.51934L11.3678 0.519325L11.3646 0.517646C11.0621 0.336685 10.6776 0.447154 10.5044 0.764828L10.0301 1.63027C9.67769 1.58312 9.32111 1.58312 8.96873 1.63027L8.49633 0.768032C8.32253 0.448222 7.93551 0.33699 7.63126 0.519325L5.98402 1.51995C5.83878 1.6086 5.73296 1.75462 5.68991 1.92551C5.64686 2.09641 5.67034 2.27828 5.75485 2.43102L6.22884 3.2963C6.01287 3.59201 5.83501 3.91639 5.70006 4.26123H4.74975C4.40013 4.26169 4.11689 4.55983 4.11646 4.92786V6.92774C4.11689 7.29577 4.40013 7.59406 4.74975 7.59437H5.70006C5.83501 7.9392 6.01287 8.26374 6.22884 8.55944L5.75572 9.4229C5.67049 9.57594 5.64672 9.75828 5.68977 9.92978C5.73282 10.1013 5.83907 10.2475 5.98489 10.3363L7.6343 11.3379C7.72953 11.3946 7.83723 11.4243 7.94667 11.4242C8.17309 11.4255 8.38254 11.298 8.49445 11.0908L8.96873 10.2252C9.32111 10.2725 9.67769 10.2725 10.0301 10.2252L10.5026 11.0877C10.6766 11.4075 11.0636 11.5186 11.3678 11.3361L13.0151 10.3356C13.1603 10.2468 13.2661 10.101 13.3092 9.93008C13.3522 9.75919 13.3287 9.57716 13.2442 9.42443L12.7702 8.55944C12.9862 8.26374 13.1641 7.9392 13.299 7.59437H14.2493ZM12.7817 7.15188C12.6411 7.57682 12.4257 7.96987 12.147 8.31089C12.0595 8.41815 12.0461 8.5718 12.1132 8.69417L12.6978 9.75889L11.0533 10.7578L10.4706 9.6945C10.4038 9.57228 10.2708 9.50758 10.1391 9.53322C9.71625 9.61439 9.28299 9.61439 8.86016 9.53322C8.72826 9.50743 8.59533 9.57213 8.52866 9.6945L7.94798 10.7589L6.30335 9.75767L6.88591 8.69433C6.95303 8.57196 6.93954 8.41846 6.85228 8.31104C6.5734 7.97018 6.358 7.57697 6.21739 7.15203C6.17333 7.01792 6.05316 6.92774 5.91821 6.92774H4.74975V4.92786H5.91821C6.05302 4.92786 6.17304 4.83783 6.21725 4.70371C6.358 4.27893 6.5734 3.88573 6.85228 3.54486C6.93954 3.43744 6.95317 3.28379 6.88606 3.16142L6.30132 2.09671L7.9458 1.09776L8.52851 2.1611C8.59504 2.28362 8.72811 2.34847 8.86002 2.32238C9.28284 2.24136 9.7161 2.24136 10.1389 2.32238C10.2707 2.34816 10.4036 2.28362 10.4706 2.16125L11.0511 1.09807H11.0517L11.0536 1.09852L12.6956 2.09839L12.113 3.16173C12.0459 3.2841 12.0594 3.43775 12.1467 3.54501C12.4256 3.88603 12.641 4.27923 12.7816 4.70402C12.8259 4.83814 12.9461 4.92801 13.0809 4.92786H14.2493V6.92774H13.0809C12.9459 6.92774 12.8259 7.01776 12.7817 7.15188Z" fill="white"/>
<path d="M0.950017 19.5939H2.53319C2.80193 19.5932 3.05762 19.4719 3.2362 19.2606H11.1778C11.6424 19.2607 12.0982 19.1261 12.4949 18.8718L18.4305 15.0685C18.7157 14.8857 18.9142 14.5849 18.9776 14.2399C19.0408 13.9056 18.969 13.5587 18.7794 13.2826C18.7738 13.2727 18.7677 13.2632 18.7612 13.254C18.4556 12.8242 17.9228 12.6491 17.4392 12.8193L11.5779 14.876C11.4809 14.9098 11.3793 14.9272 11.2771 14.9272H11.0952C11.2457 14.4933 11.2025 14.0111 10.9774 13.6147L10.949 13.565C10.604 12.9641 9.98649 12.5963 9.31956 12.5941H7.66348C7.07932 12.5934 6.51271 12.3842 6.05611 12.0006C5.48702 11.5227 4.78082 11.2619 4.05272 11.2609H3.42479C3.29158 10.8625 2.93441 10.5956 2.53319 10.5942H0.950017C0.42558 10.5948 0.000579809 11.0422 0 11.5943V18.5939C0.000579809 19.146 0.42558 19.5933 0.950017 19.5939ZM5.66024 12.5212C6.22918 12.9991 6.93539 13.2598 7.66334 13.2608H9.31942C9.76398 13.2621 10.1758 13.5073 10.4055 13.9078L10.4341 13.9576C10.6069 14.2609 10.5883 14.6442 10.387 14.9274H8.46246C7.83713 14.9269 7.22587 15.1218 6.70593 15.4874L6.474 15.6502C6.37877 15.7156 6.32427 15.8301 6.33122 15.9495C6.33818 16.0692 6.40559 16.1757 6.50778 16.2285C6.60997 16.2813 6.73129 16.2721 6.82537 16.2048L7.05729 16.042C7.47316 15.7495 7.96223 15.5936 8.46246 15.594H11.277C11.4473 15.594 11.6165 15.5652 11.778 15.5086L17.6395 13.4521C17.8541 13.3743 18.0919 13.4442 18.2373 13.6276C18.2428 13.6373 18.2491 13.6466 18.2554 13.6559C18.3486 13.7869 18.385 13.953 18.3557 14.1135C18.3265 14.274 18.2341 14.4141 18.1015 14.4993L12.1658 18.3025C11.8681 18.4931 11.5263 18.5939 11.1778 18.5939H3.4832V11.9275H4.05272C4.63688 11.9283 5.20364 12.1376 5.66024 12.5212ZM0.633296 11.5943C0.633441 11.4102 0.775205 11.261 0.950017 11.2609H2.53319C2.708 11.261 2.84976 11.4102 2.84991 11.5943V18.5939C2.84976 18.7779 2.708 18.927 2.53319 18.9272H0.950017C0.775205 18.927 0.633441 18.7779 0.633296 18.5939V11.5943Z" fill="white"/>
</g>
<defs>
<clipPath id="clip0">
<rect width="19" height="20" fill="white"/>
</clipPath>
</defs>
</svg>
