<svg width="21" height="23" viewBox="0 0 21 23" fill="none" xmlns="http://www.w3.org/2000/svg">
<path d="M9.08346 7.95628C7.84435 8.75048 7.08505 10.1038 7.0575 11.5665C7.0575 11.7689 7.22285 11.9328 7.42674 11.9328C7.63081 11.9328 7.79616 11.7689 7.79616 11.5665C7.82152 10.3602 8.44573 9.24391 9.4642 8.58383C9.63564 8.47804 9.68957 8.25538 9.58559 8.08387C9.48145 7.91252 9.25777 7.85551 9.08346 7.95628Z" fill="white"/>
<path d="M19.1192 10.0917C18.246 10.0929 17.4937 10.7081 17.318 11.5646H12.8315C12.7465 11.1614 12.5284 10.7986 12.2123 10.5347L13.4546 8.25071H14.7442C14.933 9.17677 15.7912 9.8092 16.7302 9.71413C17.6692 9.61923 18.3839 8.82751 18.3839 7.88241C18.3839 6.9373 17.6692 6.14558 16.7302 6.05069C15.7912 5.95562 14.933 6.58822 14.7442 7.51428H13.6041V5.08906L14.8593 3.83195H16.5826C16.7713 4.75801 17.6297 5.39061 18.5687 5.29554C19.5076 5.20065 20.2223 4.40893 20.2223 3.46382C20.2223 2.51855 19.5076 1.727 18.5687 1.63193C17.6297 1.53703 16.7713 2.16946 16.5826 3.09552H14.8593C14.6644 3.09603 14.4776 3.17357 14.3394 3.31128L14.0242 3.62716C13.7658 3.53141 13.5029 3.44865 13.2363 3.37937V1.62266C13.2358 1.2161 12.9069 0.886736 12.501 0.88623H9.5596C9.15364 0.886736 8.82476 1.2161 8.82425 1.62266V3.37904C8.02496 3.58316 7.25865 3.90022 6.54855 4.32027L5.31519 3.0849C5.17768 2.94298 4.98833 2.86308 4.79074 2.86359H4.79006C4.59432 2.86274 4.40649 2.94146 4.26982 3.08187L2.19559 5.15884C2.05471 5.29639 1.9751 5.48484 1.97443 5.68171C1.97392 5.87876 2.05236 6.06771 2.19239 6.2061L3.42862 7.44432C3.00919 8.15564 2.69277 8.92309 2.48861 9.72357H0.735341C0.32938 9.72407 0.000504928 10.0534 0 10.46V13.4057C0.000504928 13.8123 0.32938 14.1416 0.735341 14.1422H2.48861C2.69277 14.9426 3.00919 15.7101 3.42862 16.4214L2.19559 17.6563C2.05471 17.7938 1.9751 17.9822 1.97443 18.1791C1.97392 18.3762 2.05236 18.5651 2.19239 18.7033L4.26662 20.7805C4.4038 20.9226 4.59281 21.0026 4.79023 21.0021H4.79091C4.98699 21.003 5.17482 20.9243 5.31199 20.7839L6.54855 19.5456C7.25865 19.9657 8.02496 20.2827 8.82425 20.4869V22.2431C8.82476 22.6496 9.15364 22.979 9.5596 22.9795H12.501C12.9069 22.979 13.2358 22.6496 13.2363 22.2431V20.4863C13.5029 20.4171 13.7658 20.3343 14.0242 20.2386L14.3394 20.5544C14.4776 20.6922 14.6644 20.7697 14.8593 20.7702H16.5826C16.7713 21.6963 17.6297 22.3287 18.5687 22.2338C19.5076 22.1387 20.2223 21.3472 20.2223 20.4019C20.2223 19.4568 19.5076 18.6651 18.5687 18.5702C17.6297 18.4751 16.7713 19.1077 16.5826 20.0338H14.8593L13.6041 18.7767V16.3514H14.7442C14.933 17.2775 15.7912 17.9101 16.7302 17.815C17.6692 17.7201 18.3839 16.9284 18.3839 15.9833C18.3839 15.0382 17.6692 14.2465 16.7302 14.1516C15.7912 14.0565 14.933 14.689 14.7442 15.615H13.4546L12.2123 13.3311C12.5284 13.0671 12.7465 12.7044 12.8315 12.3012H17.318C17.5115 13.2503 18.4064 13.8871 19.3653 13.7573C20.3239 13.6277 21.0184 12.776 20.9534 11.8093C20.8885 10.8426 20.0866 10.0917 19.1192 10.0917ZM18.3839 2.35909C18.993 2.35909 19.4868 2.85364 19.4868 3.46382C19.4868 4.07383 18.993 4.56838 18.3839 4.56838C17.7746 4.56838 17.2808 4.07383 17.2808 3.46382C17.2814 2.85398 17.7749 2.35977 18.3839 2.35909ZM18.3839 19.2973C18.993 19.2973 19.4868 19.7919 19.4868 20.4019C19.4868 21.0121 18.993 21.5066 18.3839 21.5066C17.7746 21.5066 17.2808 21.0121 17.2808 20.4019C17.2814 19.7921 17.7749 19.298 18.3839 19.2973ZM11.0303 13.0376C10.4212 13.0376 9.92718 12.5429 9.92718 11.9329C9.92718 11.3228 10.4212 10.8281 11.0303 10.8281C11.6394 10.8281 12.1334 11.3228 12.1334 11.9329C12.1327 12.5427 11.6392 13.0369 11.0303 13.0376ZM16.5454 6.77785C17.1545 6.77785 17.6485 7.2724 17.6485 7.88241C17.6485 8.49259 17.1545 8.98714 16.5454 8.98714C15.9363 8.98714 15.4423 8.49259 15.4423 7.88241C15.443 7.27256 15.9365 6.77852 16.5454 6.77785ZM12.7889 19.8364C12.6206 19.8736 12.501 20.0231 12.501 20.1958V22.2431H9.5596V20.1958C9.5596 20.0226 9.43925 19.873 9.27061 19.8361C8.35451 19.635 7.48115 19.2739 6.69027 18.7692C6.54485 18.6772 6.35517 18.6981 6.23331 18.8198L4.7899 20.2632L2.71246 18.1805L4.15369 16.7371C4.27554 16.6151 4.29642 16.4248 4.20401 16.2793C3.70027 15.4872 3.33958 14.6124 3.13862 13.6953C3.10176 13.5262 2.9523 13.4059 2.77962 13.4057H0.735341V10.46H2.77962C2.9523 10.46 3.10176 10.3395 3.13862 10.1706C3.33958 9.25329 3.70027 8.37847 4.20401 7.58642C4.29642 7.44095 4.27554 7.25065 4.15369 7.12878L2.71246 5.68306L4.79208 3.60255L6.23331 5.04591C6.35517 5.16795 6.54519 5.18902 6.69044 5.09648C7.48132 4.59181 8.35467 4.23076 9.27061 4.02984C9.43942 3.99276 9.5596 3.84291 9.5596 3.66997V1.62266H12.501V3.66997C12.501 3.84257 12.6206 3.99208 12.7889 4.02934C13.0163 4.08007 13.235 4.13991 13.4463 4.20565L13.0841 4.56838C12.9456 4.70627 12.8682 4.8937 12.8687 5.08906V5.56625C10.165 4.78245 7.26218 5.79684 5.63245 8.09513C4.00255 10.3933 4.00255 13.4725 5.63245 15.7706C7.26218 18.0689 10.165 19.0833 12.8687 18.2995V18.7767C12.8682 18.972 12.9458 19.1595 13.0841 19.2973L13.4463 19.6599C13.235 19.726 13.0163 19.7857 12.7889 19.8364ZM16.5454 14.8786C17.1545 14.8786 17.6485 15.3731 17.6485 15.9833C17.6485 16.5933 17.1545 17.0879 16.5454 17.0879C15.9363 17.0879 15.4423 16.5933 15.4423 15.9833C15.443 15.3735 15.9365 14.8793 16.5454 14.8786ZM12.8687 16.077V17.5249C10.4414 18.331 7.77199 17.4744 6.26478 15.4053C4.75741 13.3364 4.75741 10.5293 6.26478 8.46039C7.77199 6.39134 10.4414 5.53473 12.8687 6.34077V7.78869L11.5673 10.1812C11.3938 10.1246 11.2127 10.0944 11.0303 10.0917C10.015 10.0917 9.19184 10.9161 9.19184 11.9329C9.19184 12.9496 10.015 13.774 11.0303 13.774C11.2127 13.7713 11.3938 13.7412 11.5673 13.6845L12.8687 16.077ZM19.1192 13.0376C18.5099 13.0376 18.0161 12.5429 18.0161 11.9329C18.0161 11.3228 18.5099 10.8281 19.1192 10.8281C19.7283 10.8281 20.2221 11.3228 20.2221 11.9329C20.2214 12.5427 19.7281 13.0369 19.1192 13.0376Z" fill="white"/>
</svg>
