<svg width="22" height="22" viewBox="0 0 22 22" fill="none" xmlns="http://www.w3.org/2000/svg">
<g clip-path="url(#clip0)">
<path d="M10.6453 0H11.3549V2.12903H10.6453V0Z" fill="white"/>
<path d="M3.47278 3.26519L3.97454 2.76343L5.47983 4.26855L4.9779 4.77031L3.47278 3.26519Z" fill="white"/>
<path d="M0.709595 9.93555H2.83863V10.6452H0.709595V9.93555Z" fill="white"/>
<path d="M19.1614 9.93555H21.2904V10.6452H19.1614V9.93555Z" fill="white"/>
<path d="M16.5198 4.26855L18.0251 2.76343L18.5268 3.26519L17.0217 4.77031L16.5198 4.26855Z" fill="white"/>
<path d="M15.8925 15.9024C17.5187 14.4867 18.4515 12.4414 18.4515 10.2903C18.4515 8.22559 17.6261 6.30551 16.1278 4.88373C14.6303 3.46282 12.667 2.74361 10.5976 2.8493C6.72869 3.05306 3.63304 6.24972 3.55005 10.1271C3.50327 12.3201 4.42016 14.4114 6.06562 15.8662C6.2323 16.0139 6.37923 16.176 6.50831 16.3503C6.03357 16.4571 5.67735 16.8803 5.67735 17.3871C5.67735 17.6607 5.78408 17.9079 5.95404 18.0968C5.78373 18.2857 5.67735 18.5329 5.67735 18.8065C5.67735 19.3933 6.15503 19.871 6.74186 19.871H7.52258C8.18599 21.1729 9.52201 22 10.9999 22C12.4728 22 13.8116 21.1715 14.4759 19.871H15.258C15.8448 19.871 16.3225 19.3933 16.3225 18.8065C16.3225 18.5329 16.2158 18.2857 16.0458 18.0968C16.2161 17.9079 16.3225 17.6607 16.3225 17.3871C16.3225 16.8769 15.9613 16.4499 15.4812 16.347C15.6023 16.1856 15.7388 16.0365 15.8925 15.9024ZM4.25972 10.1424C4.33457 6.63436 7.13534 3.74211 10.6352 3.55794C12.5066 3.46005 14.2846 4.11255 15.6395 5.39849C16.9953 6.68478 17.7419 8.42172 17.7419 10.2903C17.7419 12.2355 16.8981 14.086 15.4266 15.3678C15.1144 15.64 14.8588 15.962 14.6576 16.3226H7.33199C7.12442 15.9542 6.85968 15.6211 6.53568 15.3347C5.04685 14.0186 4.2171 12.1259 4.25972 10.1424ZM10.9999 21.2903C9.91947 21.2903 8.93725 20.746 8.35146 19.871H13.6494C13.0633 20.7456 12.0773 21.2903 10.9999 21.2903ZM15.258 19.1613H6.74186C6.54642 19.1613 6.38702 19.0023 6.38702 18.8065C6.38702 18.6107 6.54642 18.4516 6.74186 18.4516H15.258C15.4534 18.4516 15.6128 18.6107 15.6128 18.8065C15.6128 19.0023 15.4534 19.1613 15.258 19.1613ZM15.6128 17.3871C15.6128 17.5829 15.4534 17.742 15.258 17.742H6.74186C6.54642 17.742 6.38702 17.5829 6.38702 17.3871C6.38702 17.1913 6.54642 17.0323 6.74186 17.0323H15.258C15.4534 17.0323 15.6128 17.1913 15.6128 17.3871Z" fill="white"/>
<path d="M6.74194 11.7096C6.74194 12.2964 7.21962 12.7741 7.80646 12.7741H8.87097V12.1024C8.87097 11.9114 8.99936 11.7411 9.16379 11.7146C9.27155 11.6964 9.37482 11.7252 9.45538 11.7936C9.53526 11.8615 9.58065 11.9601 9.58065 12.0644V12.7741H15.6129C16.1997 12.7741 16.6774 12.2964 16.6774 11.7096V10.6451H15.6129C15.5086 10.6451 15.41 10.5993 15.3425 10.5198C15.274 10.4389 15.2459 10.3353 15.2631 10.2282C15.29 10.0638 15.4603 9.9354 15.6509 9.9354H16.6774V8.87088C16.6774 8.28405 16.1997 7.80637 15.6129 7.80637H14.9032V7.48947C14.9032 6.9515 14.5214 6.48352 14.0151 6.40122C13.7043 6.3508 13.3877 6.43778 13.1497 6.64032C12.9107 6.84304 12.7742 7.13862 12.7742 7.45153V7.80637H9.58065V8.47845C9.58065 8.66903 9.45227 8.83935 9.28784 8.86586C9.18042 8.8844 9.07681 8.85529 8.99624 8.78685C8.91637 8.71893 8.87097 8.62035 8.87097 8.51604V7.80637H7.80646C7.21962 7.80637 6.74194 8.28405 6.74194 8.87088V9.22572H6.42505C5.88707 9.22572 5.41944 9.60759 5.33714 10.1142C5.28638 10.4261 5.3737 10.7416 5.57624 10.9796C5.77896 11.2177 6.07454 11.3548 6.3871 11.3548H6.74194V11.7096ZM11.7097 8.51604H13.4839V7.45153C13.4839 7.34723 13.5293 7.24864 13.6091 7.18072C13.6897 7.11228 13.7926 7.08352 13.9007 7.10172C14.0652 7.12857 14.1936 7.29854 14.1936 7.48947V8.51604H15.6129C15.8083 8.51604 15.9677 8.6751 15.9677 8.87088V9.22572H15.6509C15.1129 9.22572 14.6452 9.60759 14.5629 10.1142C14.5122 10.4261 14.5995 10.7416 14.802 10.9796C15.0048 11.2177 15.3003 11.3548 15.6129 11.3548H15.9677V11.7096C15.9677 11.9054 15.8083 12.0644 15.6129 12.0644H11.7097V11.3548H12.0645C12.3771 11.3548 12.6727 11.2182 12.8757 10.9796C13.0786 10.7412 13.1656 10.4257 13.1148 10.1139C13.0322 9.60759 12.5646 9.22572 12.0266 9.22572H11.7097V8.51604ZM6.3871 10.6451C6.2828 10.6451 6.18421 10.5993 6.11664 10.5198C6.0482 10.4389 6.02014 10.3353 6.03729 10.2282C6.06414 10.0638 6.23446 9.9354 6.42505 9.9354H7.45162V8.87088C7.45162 8.6751 7.61102 8.51604 7.80646 8.51604H8.1613C8.1613 8.82895 8.29783 9.12454 8.53641 9.32725C8.77447 9.52979 9.09102 9.61643 9.40185 9.56635C9.89651 9.48544 10.2723 9.03808 10.2893 8.51604H11V9.9354H12.0266C12.2172 9.9354 12.3875 10.0638 12.4143 10.2279C12.4318 10.3356 12.4038 10.4392 12.335 10.5198C12.2674 10.5993 12.1688 10.6451 12.0645 10.6451H11V12.0644H10.2903C10.2903 11.7515 10.1538 11.4559 9.91487 11.2532C9.67681 11.0507 9.36096 10.9634 9.04943 11.0141C8.55477 11.095 8.17932 11.5424 8.16199 12.0644H7.80646C7.61102 12.0644 7.45162 11.9054 7.45162 11.7096V10.6451H6.3871Z" fill="white"/>
</g>
<defs>
<clipPath id="clip0">
<rect width="22" height="22" fill="white"/>
</clipPath>
</defs>
</svg>
