<svg xmlns="http://www.w3.org/2000/svg" xmlns:xlink="http://www.w3.org/1999/xlink"><symbol id="phone" viewBox="0 0 11 11"><path d="M4.68 6.437c1.035.992 2.233 1.941 2.709 1.488.68-.647 1.1-1.212 2.594-.059 1.495 1.153.343 1.918-.315 2.545-.76.725-3.589.033-6.38-2.646C.495 5.085-.216 2.378.545 1.653c.658-.628 1.459-1.726 2.659-.292 1.2 1.433.609 1.833-.072 2.48-.473.454.515 1.603 1.548 2.596z"/></symbol><symbol id="polygon" viewBox="0 0 51 53"><path d="M15.32 9.301h20l10 17.32-10 17.321h-20l-10-17.32 10-17.32z"/></symbol></svg>